<svg width="21" height="24" viewBox="0 0 21 24" fill="none" xmlns="http://www.w3.org/2000/svg">
<path d="M19.8066 11.966C19.2932 11.364 18.8787 10.6841 18.5789 9.95193C18.3534 9.38196 18.2396 8.77404 18.2437 8.16111V7.93993C18.2437 5.8341 17.4073 3.81456 15.9182 2.32552C14.4292 0.836475 12.4095 0 10.3037 0C8.19735 0 6.17736 0.83671 4.68795 2.32613C3.19853 3.81554 2.3617 5.83565 2.3617 7.942V8.16514C2.36585 8.77464 2.25273 9.37916 2.02852 9.94595C1.72855 10.68 1.31347 11.3617 0.798897 11.965C0.493955 12.4742 0.292487 13.0384 0.205946 13.6255C0.119405 14.2127 0.149539 14.8111 0.294614 15.3866C0.439688 15.962 0.696807 16.5032 1.05134 16.9792C1.40588 17.4551 1.85086 17.8565 2.36072 18.1602C2.36645 18.1648 2.37291 18.1685 2.37977 18.1712L2.43376 18.2022C2.56565 18.2713 2.70198 18.3314 2.84192 18.3822C2.89595 18.4032 2.95701 18.4253 3.02304 18.4483C3.2131 18.5189 3.40726 18.578 3.60439 18.6254C3.64241 18.6334 3.67935 18.6444 3.71736 18.6494H3.72543L3.95259 18.7034C4.11167 18.7394 4.2837 18.7744 4.4708 18.8104L4.76294 18.8624C4.96304 18.8965 5.18416 18.9306 5.41927 18.9626C5.65439 18.9946 5.90553 19.0256 6.17466 19.0536C7.54609 19.19 8.92355 19.2568 10.3017 19.2536C11.1022 19.2536 11.8245 19.2417 12.4798 19.2137C13.6254 19.1637 14.5579 19.0736 15.3133 18.9655C15.6365 18.9195 15.9286 18.8655 16.1888 18.8185C16.9085 18.7286 17.6052 18.505 18.2428 18.1591C18.7526 17.8556 19.1976 17.4546 19.5523 16.9789C19.9069 16.5032 20.1642 15.9622 20.3095 15.3869C20.4548 14.8117 20.4851 14.2134 20.3988 13.6264C20.3125 13.0394 20.1112 12.4751 19.8066 11.966Z" fill="black"/>
<path d="M13.4064 20.9376C12.4169 20.5656 11.36 20.4067 10.3049 20.4713C9.24973 20.4068 8.19286 20.5657 7.20333 20.9376C7.04683 21.03 6.92241 21.1682 6.84707 21.3335C6.77173 21.4989 6.74909 21.6834 6.7821 21.8621C6.94789 22.3705 7.25013 22.8236 7.65595 23.1719C8.06177 23.5202 8.55548 23.7503 9.08319 23.8371C9.88514 24.0544 10.7305 24.0544 11.5324 23.8371C12.0602 23.7505 12.554 23.5205 12.9599 23.1721C13.3658 22.8238 13.668 22.3706 13.8336 21.8621C13.8662 21.6828 13.8427 21.4977 13.7662 21.3323C13.6898 21.1668 13.5641 21.029 13.4064 20.9376V20.9376Z" fill="black"/>
</svg>
