<svg width="15" height="12" viewBox="0 0 15 12" fill="none" xmlns="http://www.w3.org/2000/svg">
<path d="M5.39108 6.54577C5.39721 5.87256 5.57806 5.21248 5.91593 4.63015C6.2538 4.04783 6.73709 3.56324 7.31851 3.22382C7.43423 3.13238 7.57166 3.07247 7.71742 3.04994C7.86318 3.02741 8.01228 3.04302 8.15021 3.09525C8.28814 3.14749 8.41017 3.23457 8.50444 3.34799C8.59871 3.46142 8.66201 3.59732 8.68813 3.74248C8.83043 4.16013 9.0026 4.56783 9.14063 4.9869C9.17742 5.1127 9.24682 5.22652 9.34178 5.31685C9.43674 5.40719 9.5539 5.47083 9.68137 5.50131C10.104 5.62297 10.5266 5.74322 10.9471 5.86986C11.0024 5.8803 11.055 5.90167 11.1019 5.9327C11.1488 5.96374 11.189 6.00382 11.2202 6.0506C11.2514 6.09739 11.273 6.14992 11.2837 6.20514C11.2943 6.26036 11.2938 6.31714 11.2822 6.37218C11.2758 6.43156 11.2567 6.48888 11.2263 6.54026C11.1958 6.59163 11.1547 6.63587 11.1056 6.66999C11.0566 6.70412 11.0008 6.72733 10.942 6.73806C10.8833 6.74879 10.8229 6.74679 10.765 6.7322C10.3416 6.67315 9.91972 6.60697 9.49994 6.52586C9.18517 6.47869 8.8867 6.3553 8.6305 6.16644C8.37431 5.97759 8.16818 5.72897 8.03 5.44225C7.95885 5.29995 7.87203 5.16406 7.77883 5.00184C7.45162 5.32068 7.23182 5.73347 7.14988 6.18292C7.09795 6.38926 7.14986 6.48743 7.35477 6.55787C7.96381 6.76633 8.56858 6.98904 9.17051 7.21814C9.2904 7.24695 9.40112 7.3055 9.49243 7.38837C9.58373 7.47124 9.6527 7.57577 9.69297 7.69231C9.73324 7.80886 9.74348 7.93367 9.7228 8.05523C9.70213 8.17678 9.65117 8.29117 9.57463 8.38785C9.27296 8.8859 8.94996 9.37113 8.6305 9.8585C8.40425 10.2036 8.39998 10.2007 8.6305 10.5508C8.64473 10.5721 8.66963 10.5942 8.66963 10.6155C8.66963 10.7301 8.70448 10.8809 8.64614 10.9492C8.60321 10.9916 8.55108 11.0233 8.4938 11.0421C8.43651 11.0609 8.37565 11.0661 8.31601 11.0574C8.00901 10.9704 7.70851 10.862 7.4167 10.7329C7.35993 10.7144 7.30807 10.6834 7.26492 10.6421C7.22177 10.6008 7.18842 10.5504 7.16739 10.4945C7.14635 10.4387 7.13815 10.3788 7.14337 10.3193C7.14859 10.2598 7.16712 10.2023 7.19757 10.1509C7.42098 9.61352 7.64506 9.07611 7.86989 8.53869C7.88839 8.49387 7.90192 8.44761 7.92113 8.39638C7.44514 8.25408 6.97985 8.11605 6.51951 7.96948C6.31691 7.91325 6.12175 7.83299 5.9382 7.73042C5.7446 7.60463 5.5905 7.42666 5.49369 7.21706C5.39688 7.00745 5.36131 6.77473 5.39108 6.54577V6.54577Z" fill="url(#paint0_linear_93_7)"/>
<path d="M4.29717 7.19029C3.88237 7.19527 3.46686 7.18603 3.05206 7.19457C2.88015 7.19829 2.70901 7.21903 2.54119 7.25648C2.18841 7.331 1.86316 7.50173 1.60145 7.74975C1.33974 7.99778 1.1518 8.31341 1.05844 8.66168L0.909058 9.10921L0.819426 9.09853C0.687521 8.79128 0.638507 8.4548 0.677336 8.1227C0.716164 7.79059 0.841415 7.47448 1.04064 7.20595C0.640779 7.11986 0.442306 6.93133 0.435191 6.60688C0.416218 5.76779 0.403443 4.92846 0.396802 4.0889C0.3926 4.00997 0.40486 3.93103 0.432846 3.85711C0.460832 3.78319 0.503882 3.7159 0.559303 3.65954C0.614724 3.60319 0.681279 3.55899 0.754721 3.52976C0.828164 3.50054 0.906846 3.48693 0.985836 3.48981C1.8605 3.48175 2.73525 3.48175 3.60991 3.48981C3.78178 3.48974 3.94783 3.55189 4.07744 3.66476C4.20705 3.77762 4.29143 3.93359 4.31498 4.10384C4.47435 4.93297 4.63157 5.76305 4.78668 6.59407C4.80772 6.66702 4.81069 6.74399 4.79536 6.81835C4.78003 6.89271 4.74687 6.96221 4.69869 7.02089C4.65052 7.07957 4.58877 7.12565 4.51882 7.15516C4.44887 7.18467 4.37282 7.19673 4.29717 7.19029V7.19029Z" fill="url(#paint1_linear_93_7)"/>
<path d="M11.1291 7.98056C11.2607 7.91439 11.3141 7.85106 11.2579 7.70379C11.2178 7.5879 11.1874 7.46891 11.1668 7.34804C11.1284 7.15878 11.1924 7.02929 11.3347 6.99229C11.4905 6.95031 11.6143 7.0357 11.6662 7.22638C11.7132 7.39785 11.7552 7.57145 11.8036 7.76284C11.9766 7.75321 12.15 7.75321 12.323 7.76284C12.7512 7.81576 13.1529 7.99847 13.4742 8.28644C13.7955 8.5744 14.0209 8.95381 14.1202 9.37368C14.2187 9.79444 14.1866 10.2352 14.0282 10.6373C13.8698 11.0393 13.5927 11.3836 13.2337 11.6241C12.8746 11.8616 12.4514 11.9834 12.021 11.9734C11.5907 11.9633 11.1736 11.8218 10.826 11.5679C10.536 11.3533 10.3057 11.068 10.1571 10.7392C10.0085 10.4105 9.94637 10.0492 9.97675 9.68969C10.0071 9.33018 10.1289 8.98441 10.3306 8.68526C10.5323 8.38611 10.8072 8.14352 11.1291 7.98056V7.98056ZM10.8851 10.3071C10.9955 10.6029 11.2121 10.8469 11.4927 10.9916C11.7732 11.1363 12.0977 11.1713 12.4027 11.0898C12.7146 11.0032 12.9818 10.8012 13.1503 10.5248C13.3188 10.2484 13.3758 9.91824 13.3098 9.60134C13.2498 9.30662 13.0847 9.04377 12.8453 8.8617C12.6059 8.67964 12.3085 8.59077 12.0085 8.61165C12.0647 8.82937 12.1152 9.04353 12.1792 9.252C12.1899 9.28828 12.2504 9.31319 12.2959 9.33596C12.3698 9.36776 12.4362 9.41485 12.4905 9.47414C12.5449 9.53344 12.5861 9.60359 12.6113 9.67996C12.6366 9.75634 12.6454 9.8372 12.6372 9.91722C12.6289 9.99725 12.6038 10.0746 12.5634 10.1442C12.5251 10.2107 12.4738 10.2688 12.4125 10.315C12.3512 10.3611 12.2812 10.3944 12.2067 10.4128C12.1322 10.4313 12.0547 10.4344 11.979 10.4221C11.9032 10.4098 11.8307 10.3823 11.7659 10.3413C11.6989 10.2971 11.6419 10.2396 11.5983 10.1722C11.5548 10.1049 11.5256 10.0293 11.5127 9.95018C11.4998 9.87104 11.5034 9.79007 11.5234 9.7124C11.5433 9.63473 11.5791 9.56204 11.6286 9.4989C11.6652 9.43782 11.6791 9.36572 11.6677 9.2954C11.6328 9.10828 11.5787 8.92543 11.5254 8.72621C11.2406 8.86225 11.017 9.09989 10.8985 9.39244C10.78 9.68498 10.7752 10.0113 10.8851 10.3071V10.3071Z" fill="url(#paint2_linear_93_7)"/>
<path d="M3.51858 7.75701C3.7959 7.75341 4.07113 7.80516 4.32821 7.90924C4.58529 8.01332 4.81903 8.16764 5.01574 8.36316C5.21245 8.55867 5.36824 8.79146 5.47389 9.0479C5.57953 9.30434 5.63292 9.57928 5.631 9.85663C5.63344 10.1338 5.58101 10.4088 5.47675 10.6656C5.37249 10.9225 5.21843 11.1562 5.02347 11.3532C4.82851 11.5503 4.59652 11.7069 4.34081 11.8139C4.08509 11.9209 3.81072 11.9763 3.53351 11.9769C3.25624 11.9773 2.98167 11.9228 2.72552 11.8167C2.46937 11.7105 2.23668 11.5548 2.04095 11.3584C1.84522 11.162 1.69026 10.9288 1.58498 10.6723C1.47969 10.4158 1.4262 10.141 1.42751 9.86375C1.42619 9.30731 1.64557 8.77304 2.03757 8.37812C2.42956 7.98319 2.96214 7.75984 3.51858 7.75701ZM3.53421 11.1352C3.87005 11.1315 4.19103 10.996 4.42792 10.7579C4.66481 10.5198 4.79866 10.1982 4.80069 9.86232C4.79827 9.52586 4.66349 9.20387 4.42558 8.96596C4.18766 8.72804 3.86572 8.5933 3.52926 8.59088C3.36288 8.59152 3.19827 8.62513 3.04497 8.68979C2.89167 8.75444 2.75274 8.84886 2.63615 8.96756C2.51957 9.08626 2.42767 9.22689 2.36578 9.38133C2.30389 9.53576 2.27328 9.70093 2.27563 9.86729C2.27336 10.0335 2.30419 10.1984 2.36639 10.3525C2.42859 10.5066 2.52091 10.6468 2.63789 10.7648C2.75487 10.8829 2.89412 10.9764 3.04766 11.04C3.2012 11.1036 3.36594 11.136 3.53212 11.1352H3.53421Z" fill="url(#paint3_linear_93_7)"/>
<path d="M10.9082 1.99227C10.4907 1.91202 10.0785 1.80677 9.67369 1.67708C9.40759 1.59811 9.26529 1.68207 9.303 1.9567C9.34305 2.18975 9.39506 2.42057 9.45882 2.64827C9.4759 2.73705 9.51801 2.81914 9.58015 2.88481C9.64229 2.95048 9.72191 2.99704 9.80961 3.019C10.1718 3.11576 10.5346 3.20968 10.9003 3.2915C11.0711 3.32921 11.1138 3.38684 11.0049 3.53056C10.9372 3.63727 10.8376 3.71985 10.7201 3.76649C10.6027 3.81314 10.4735 3.82145 10.3511 3.79025C9.90523 3.68531 9.46749 3.54858 9.04119 3.38113C8.7613 3.26325 8.52523 3.0609 8.36591 2.80234C8.20659 2.54379 8.13196 2.24195 8.15251 1.93894C8.18364 1.76352 8.23007 1.59115 8.29126 1.42382C8.40871 1.14892 8.60881 0.91736 8.86379 0.76131C9.11877 0.60526 9.41601 0.532454 9.71425 0.552951C10.0352 0.570294 10.3439 0.681743 10.6019 0.873437C10.8599 1.06513 11.0558 1.32855 11.165 1.63083C11.271 1.92112 11.2063 2.03994 10.9082 1.99227Z" fill="url(#paint4_linear_93_7)"/>
<path d="M12.832 7.31372C12.6544 7.26559 12.483 7.19706 12.3212 7.10951C12.1869 7.0395 12.0748 6.93359 11.9973 6.80355C11.9198 6.67352 11.8799 6.52448 11.8822 6.37311C11.8807 6.14433 11.9499 5.92069 12.0805 5.73281C12.2111 5.54493 12.3965 5.40203 12.6114 5.32367C12.6591 5.28667 12.7146 5.26115 12.7737 5.24911C12.8328 5.23707 12.8939 5.23881 12.9522 5.25423C13.0105 5.26965 13.0645 5.29832 13.1099 5.338C13.1553 5.37769 13.191 5.42733 13.2141 5.48305C13.4022 5.78814 13.493 6.14325 13.4745 6.5012C13.4335 6.70272 13.3788 6.9012 13.3109 7.09529C13.2981 7.14405 13.2747 7.18936 13.2422 7.22793C13.2098 7.26651 13.1692 7.29737 13.1233 7.31828C13.0775 7.3392 13.0276 7.34965 12.9772 7.34885C12.9268 7.34806 12.8772 7.33607 12.832 7.31372V7.31372Z" fill="url(#paint5_linear_93_7)"/>
<path d="M9.59677 1.80383C9.62665 1.79458 9.71634 1.87498 9.72132 1.92265C9.7263 1.97032 9.67005 2.0372 9.61171 2.15033C9.53131 2.04574 9.45448 1.98881 9.45946 1.93687C9.46444 1.88493 9.53914 1.81806 9.59677 1.80383Z" fill="url(#paint6_linear_93_7)"/>
<path d="M3.49981 9.29211C3.57794 9.28729 3.65625 9.29838 3.72997 9.32471C3.80369 9.35103 3.87128 9.39202 3.92869 9.44523C3.98609 9.49845 4.03209 9.56277 4.06392 9.63429C4.09574 9.70581 4.11275 9.78303 4.11386 9.8613C4.11354 10.013 4.05521 10.1588 3.95083 10.2689C3.84646 10.3789 3.7039 10.4449 3.55244 10.4533C3.47568 10.4554 3.39921 10.4424 3.32749 10.415C3.25578 10.3875 3.19027 10.3461 3.13459 10.2932C3.07892 10.2403 3.03419 10.177 3.0031 10.1067C2.972 10.0365 2.95508 9.96085 2.95333 9.88408C2.94961 9.80916 2.96085 9.73423 2.98642 9.66371C3.012 9.59319 3.0514 9.52849 3.10228 9.47338C3.15316 9.41826 3.21451 9.37383 3.28276 9.34271C3.35102 9.31158 3.42483 9.29439 3.49981 9.29211V9.29211Z" fill="url(#paint7_linear_93_7)"/>
<defs>
<linearGradient id="paint0_linear_93_7" x1="8.33608" y1="3.03992" x2="8.33608" y2="11.0615" gradientUnits="userSpaceOnUse">
<stop stop-color="#FE724C"/>
<stop offset="1" stop-color="#FCA892"/>
</linearGradient>
<linearGradient id="paint1_linear_93_7" x1="2.6005" y1="3.48376" x2="2.6005" y2="9.10921" gradientUnits="userSpaceOnUse">
<stop stop-color="#FE724C"/>
<stop offset="1" stop-color="#FCA892"/>
</linearGradient>
<linearGradient id="paint2_linear_93_7" x1="12.0727" y1="6.98181" x2="12.0727" y2="11.9739" gradientUnits="userSpaceOnUse">
<stop stop-color="#FE724C"/>
<stop offset="1" stop-color="#FCA892"/>
</linearGradient>
<linearGradient id="paint3_linear_93_7" x1="3.52929" y1="7.75684" x2="3.52929" y2="11.9769" gradientUnits="userSpaceOnUse">
<stop stop-color="#FE724C"/>
<stop offset="1" stop-color="#FCA892"/>
</linearGradient>
<linearGradient id="paint4_linear_93_7" x1="9.6809" y1="0.549561" x2="9.6809" y2="3.8088" gradientUnits="userSpaceOnUse">
<stop stop-color="#FE724C"/>
<stop offset="1" stop-color="#FCA892"/>
</linearGradient>
<linearGradient id="paint5_linear_93_7" x1="12.6795" y1="5.24121" x2="12.6795" y2="7.3489" gradientUnits="userSpaceOnUse">
<stop stop-color="#FE724C"/>
<stop offset="1" stop-color="#FCA892"/>
</linearGradient>
<linearGradient id="paint6_linear_93_7" x1="9.59043" y1="1.8031" x2="9.59043" y2="2.15033" gradientUnits="userSpaceOnUse">
<stop stop-color="#FE724C"/>
<stop offset="1" stop-color="#FCA892"/>
</linearGradient>
<linearGradient id="paint7_linear_93_7" x1="3.53325" y1="9.29102" x2="3.53325" y2="10.4535" gradientUnits="userSpaceOnUse">
<stop stop-color="#FE724C"/>
<stop offset="1" stop-color="#FCA892"/>
</linearGradient>
</defs>
</svg>
