<svg width="24" height="23" viewBox="0 0 24 23" fill="#000" xmlns="http://www.w3.org/2000/svg">
<path d="M21.6 2.96496H17.796L16.308 1.29353C16.0844 1.04021 15.812 0.837798 15.5083 0.699229C15.2045 0.56066 14.8761 0.48898 14.544 0.48877H9.456C8.784 0.48877 8.136 0.785913 7.68 1.29353L6.204 2.96496H2.4C1.08 2.96496 0 4.07925 0 5.44115V20.2983C0 21.6602 1.08 22.7745 2.4 22.7745H21.6C22.92 22.7745 24 21.6602 24 20.2983V5.44115C24 4.07925 22.92 2.96496 21.6 2.96496ZM12 19.0602C8.688 19.0602 6 16.2869 6 12.8697C6 9.45258 8.688 6.67925 12 6.67925C15.312 6.67925 18 9.45258 18 12.8697C18 16.2869 15.312 19.0602 12 19.0602Z" fill="#000"/>
</svg>
