<svg width="22" height="24" viewBox="0 0 22 24" fill="none" xmlns="http://www.w3.org/2000/svg">
<path d="M20.8703 10.0191C20.7625 9.05877 20.3175 8.16777 19.6146 7.50465C18.9117 6.84154 17.9965 6.44929 17.0316 6.39755V6.11527C17.0326 5.31208 16.8746 4.51674 16.5671 3.77475C16.2596 3.03275 15.8086 2.35877 15.2398 1.79169C14.6722 1.22288 13.9978 0.771838 13.2555 0.464363C12.5131 0.156888 11.7174 -0.000934692 10.9139 4.16427e-06C9.29187 0.000597761 7.73654 0.645169 6.58961 1.7921C5.44268 2.93903 4.79811 4.4945 4.79752 6.1165V6.40192C3.84541 6.46958 2.94692 6.86875 2.25851 7.52994C1.57011 8.19114 1.13532 9.07264 1.02934 10.0212L0.0090332 19.3158C0.0140731 20.562 0.513451 21.7553 1.3976 22.6336C2.28175 23.5118 3.47858 24.0033 4.7248 24H17.177C18.4233 24.0033 19.6198 23.5118 20.504 22.6336C21.3881 21.7553 21.8875 20.562 21.8925 19.3158L20.8703 10.0191ZM6.59371 6.12648C6.59357 5.55919 6.70507 4.99742 6.92206 4.47327C7.13905 3.94912 7.45735 3.4729 7.85843 3.07172C8.25952 2.67053 8.73548 2.3522 9.25957 2.13507C9.78367 1.91794 10.3455 1.80631 10.9128 1.80631C11.4802 1.80577 12.042 1.91724 12.5663 2.13439C13.0905 2.35154 13.5668 2.66996 13.9677 3.07158C14.3695 3.47233 14.6881 3.94849 14.9054 4.47272C15.1228 4.99696 15.2344 5.55897 15.234 6.12648V6.38853H6.59371V6.12648ZM7.44588 12.4804C7.30334 12.4806 7.16204 12.4526 7.03032 12.3981C6.89861 12.3436 6.77898 12.2637 6.67819 12.1629C6.5774 12.0621 6.49755 11.9425 6.44307 11.8107C6.38859 11.679 6.36063 11.5379 6.36078 11.3953C6.36063 11.2528 6.38859 11.1116 6.44307 10.9799C6.49755 10.8482 6.5774 10.7284 6.67819 10.6276C6.77898 10.5268 6.89861 10.447 7.03032 10.3925C7.16204 10.338 7.30334 10.3101 7.44588 10.3102C7.58862 10.3099 7.73001 10.3377 7.86199 10.3921C7.99396 10.4465 8.11385 10.5263 8.21494 10.6271C8.31602 10.7279 8.39635 10.8475 8.45115 10.9793C8.50594 11.1112 8.53411 11.2526 8.53426 11.3953C8.53411 11.5381 8.50594 11.6793 8.45115 11.8111C8.39635 11.943 8.31602 12.0626 8.21494 12.1634C8.11385 12.2642 7.99396 12.344 7.86199 12.3984C7.73001 12.4528 7.58862 12.4807 7.44588 12.4804V12.4804ZM14.4581 12.4804C14.3154 12.4807 14.174 12.4528 14.042 12.3984C13.9101 12.344 13.7902 12.2642 13.6891 12.1634C13.588 12.0626 13.5077 11.943 13.4529 11.8111C13.3981 11.6793 13.3699 11.5381 13.3698 11.3953C13.3699 11.2526 13.3981 11.1112 13.4529 10.9793C13.5077 10.8475 13.588 10.7279 13.6891 10.6271C13.7902 10.5263 13.9101 10.4465 14.042 10.3921C14.174 10.3377 14.3154 10.3099 14.4581 10.3102C14.6007 10.3101 14.7417 10.338 14.8734 10.3925C15.0052 10.447 15.125 10.5268 15.2258 10.6276C15.3266 10.7284 15.4065 10.8482 15.461 10.9799C15.5154 11.1116 15.5434 11.2528 15.5432 11.3953C15.5434 11.5379 15.5154 11.679 15.461 11.8107C15.4065 11.9425 15.3266 12.0621 15.2258 12.1629C15.125 12.2637 15.0052 12.3436 14.8734 12.3981C14.7417 12.4526 14.6007 12.4806 14.4581 12.4804V12.4804Z" fill="black"/>
</svg>
