<svg width="26" height="26" viewBox="0 0 26 26" fill="#000" xmlns="http://www.w3.org/2000/svg">
<path d="M9.57153 21.3019L1.00001 21.3019" stroke="#000" stroke-width="2" stroke-linecap="round"/>
<path d="M25 21.3019L9.57153 21.3019" stroke="#979797" stroke-width="2" stroke-linecap="round"/>
<path d="M13.2711 21.1402C13.2711 18.965 11.5077 17.2017 9.33256 17.2017C7.15738 17.2017 5.39404 18.965 5.39404 21.1402C5.39404 23.3154 7.15738 25.0787 9.33256 25.0787C11.5077 25.0787 13.2711 23.3154 13.2711 21.1402Z" fill="#000" stroke="#000" stroke-width="1.5"/>
<path d="M16.4282 5.22449L24.9997 5.22449" stroke="#000" stroke-width="2" stroke-linecap="round"/>
<path d="M1 5.22449L16.4285 5.22449" stroke="#979797" stroke-width="2" stroke-linecap="round"/>
<path d="M12.7289 5.38615C12.7289 7.56133 14.4923 9.32466 16.6674 9.32466C18.8426 9.32466 20.606 7.56133 20.606 5.38615C20.606 3.21096 18.8426 1.44763 16.6674 1.44763C14.4923 1.44763 12.7289 3.21097 12.7289 5.38615Z" fill="#000" stroke="#000" stroke-width="1.5"/>
</svg>
