<svg width="25" height="24" viewBox="0 0 25 24" fill="#000" xmlns="http://www.w3.org/2000/svg">
<path d="M12.0471 0C5.42212 0 0.0471191 5.375 0.0471191 12C0.0471191 18.625 5.42212 24 12.0471 24C18.6721 24 24.0471 18.625 24.0471 12C24.0471 5.375 18.6721 0 12.0471 0ZM11.6721 19C11.4249 19 11.1832 18.9267 10.9777 18.7893C10.7721 18.652 10.6119 18.4568 10.5173 18.2284C10.4227 17.9999 10.3979 17.7486 10.4461 17.5061C10.4944 17.2637 10.6134 17.0409 10.7882 16.8661C10.9631 16.6913 11.1858 16.5723 11.4283 16.524C11.6707 16.4758 11.9221 16.5005 12.1505 16.5951C12.3789 16.6898 12.5741 16.85 12.7115 17.0555C12.8488 17.2611 12.9221 17.5028 12.9221 17.75C12.9221 18.0815 12.7904 18.3995 12.556 18.6339C12.3216 18.8683 12.0036 19 11.6721 19ZM13.7621 12.625C12.749 13.305 12.6096 13.9281 12.6096 14.5C12.6096 14.7321 12.5174 14.9546 12.3533 15.1187C12.1892 15.2828 11.9667 15.375 11.7346 15.375C11.5026 15.375 11.28 15.2828 11.1159 15.1187C10.9518 14.9546 10.8596 14.7321 10.8596 14.5C10.8596 13.1306 11.4896 12.0419 12.7859 11.1713C13.9909 10.3625 14.6721 9.85 14.6721 8.72313C14.6721 7.95688 14.2346 7.375 13.329 6.94438C13.1159 6.84313 12.6415 6.74438 12.0577 6.75125C11.3252 6.76063 10.7565 6.93563 10.3184 7.28813C9.49212 7.95312 9.42212 8.67688 9.42212 8.6875C9.41658 8.80241 9.38846 8.9151 9.33937 9.01914C9.29028 9.12318 9.22118 9.21653 9.13601 9.29386C9.05084 9.3712 8.95127 9.431 8.84299 9.46985C8.73471 9.50871 8.61984 9.52585 8.50493 9.52031C8.39003 9.51477 8.27734 9.48665 8.1733 9.43756C8.06925 9.38847 7.9759 9.31937 7.89857 9.2342C7.82124 9.14903 7.76143 9.04946 7.72258 8.94118C7.68373 8.8329 7.66658 8.71803 7.67212 8.60312C7.67899 8.45125 7.78462 7.08313 9.22024 5.92813C9.96462 5.32938 10.9115 5.01813 12.0327 5.00438C12.8265 4.995 13.5721 5.12937 14.0777 5.36812C15.5909 6.08375 16.4221 7.27688 16.4221 8.72313C16.4221 10.8375 15.009 11.7869 13.7621 12.625Z" fill="#000"/>
</svg>
