<svg width="28" height="24" viewBox="0 0 28 24" fill="#000" xmlns="http://www.w3.org/2000/svg">
<path d="M20.1371 1.91197e-08C18.8925 0.000217109 17.6704 0.33168 16.5963 0.960353C15.5222 1.58903 14.6348 2.49225 14.0252 3.57728C13.4155 2.492 12.5278 1.5886 11.4533 0.959914C10.3789 0.331225 9.15648 -9.18968e-05 7.91163 1.91197e-08C6.0051 0.102968 4.21165 0.936988 2.90438 2.32857C1.5971 3.72015 0.876628 5.56214 0.892846 7.47139C0.892846 17.2075 14.0252 24 14.0252 24C14.0252 24 27.1576 17.211 27.1576 7.47139C27.1738 5.56186 26.4531 3.71962 25.1454 2.32799C23.8378 0.936367 22.0439 0.102535 20.1371 1.91197e-08V1.91197e-08Z" fill="#000"/>
</svg>
