<svg width="24" height="25" viewBox="0 0 24 25" fill="#000" xmlns="http://www.w3.org/2000/svg">
<path d="M12 24.6316C18.6274 24.6316 24 19.259 24 12.6316C24 6.00417 18.6274 0.631592 12 0.631592C5.37258 0.631592 0 6.00417 0 12.6316C0 19.259 5.37258 24.6316 12 24.6316Z" fill="#000"/>
<path d="M14.6187 7.48877C14.0059 7.48888 13.4041 7.65209 12.8752 7.96164C12.3464 8.27119 11.9094 8.71594 11.6092 9.2502C11.309 8.71581 10.8719 8.27099 10.3429 7.96142C9.81383 7.65186 9.21191 7.48872 8.59895 7.48877C7.66019 7.53947 6.77711 7.95014 6.13342 8.63534C5.48972 9.32054 5.13497 10.2275 5.14295 11.1676C5.14295 15.9616 11.6092 19.3062 11.6092 19.3062C11.6092 19.3062 18.0755 15.9633 18.0755 11.1676C18.0835 10.2274 17.7286 9.32028 17.0848 8.63506C16.4409 7.94983 15.5576 7.53926 14.6187 7.48877V7.48877Z" fill="#000"/>
</svg>
