<svg width="24" height="25" viewBox="0 0 24 25" fill="#000" xmlns="http://www.w3.org/2000/svg">
<path d="M20.0305 5.06264L20.0305 5.06263C20.0415 5.07379 20.0595 5.09307 20.0811 5.11614C20.1265 5.16464 20.1876 5.22989 20.2313 5.27171C22.4375 7.39484 23.5527 9.94427 23.6 12.928C23.5955 13.8653 23.4855 14.779 23.2313 15.6681L23.2308 15.67C22.5567 18.0724 21.1956 20.05 19.1143 21.5415L19.1141 21.5416C15.9003 23.8478 12.3343 24.4152 8.48705 23.3356L8.48674 23.3355C6.22512 22.7029 4.36398 21.4514 2.88088 19.6807C1.31726 17.8096 0.491457 15.6812 0.407372 13.2918L0.407354 13.2913C0.335861 11.3317 0.784904 9.48604 1.78464 7.77394C2.37381 6.76588 3.01676 5.85429 3.94471 5.17672L3.94593 5.17583C4.4342 4.81647 4.95654 4.67626 5.53897 4.78345C6.31345 4.9274 6.82102 5.3402 7.05269 6.02089C7.16981 6.37367 7.18549 6.69232 7.11608 6.98063C7.04657 7.26935 6.88555 7.55331 6.60932 7.82658L6.60618 7.82969L6.6062 7.82971C6.55397 7.88253 6.49406 7.93108 6.41273 7.99698C6.40493 8.0033 6.39694 8.00978 6.38873 8.01644C6.30334 8.08573 6.19475 8.17498 6.09852 8.28363C6.09828 8.28389 6.09804 8.28416 6.09781 8.28443L6.39744 8.54942C5.25827 9.82727 4.64722 11.3097 4.67341 12.9885L20.0305 5.06264ZM20.0305 5.06264L20.0285 5.06053C19.3673 4.37573 18.2494 4.25013 17.4551 4.77414L17.4546 4.77444C16.6371 5.31219 16.3802 6.28629 16.8213 7.08688L16.8229 7.08969C16.9249 7.27837 17.0868 7.4652 17.2737 7.63642L17.2737 7.63642L17.2755 7.63812C18.3188 8.60588 19.0614 9.68617 19.4455 10.882C19.8305 12.0804 19.8475 13.3707 19.4759 14.7426L19.4758 14.7428C18.7593 17.3831 16.926 19.1129 14.2476 19.8913L14.2471 19.8914C11.6409 20.6452 9.19142 20.1689 7.07426 18.5379C5.24997 17.136 4.30584 15.2429 4.27346 12.9945L20.0305 5.06264Z" fill="#000" stroke="white" stroke-width="0.8"/>
<path d="M12.9412 0.912604L12.9409 0.912449C12.2858 0.567351 11.6199 0.580973 10.9792 0.950891L10.9792 0.950892L10.978 0.951557C10.3606 1.30533 10.0444 1.81877 10.0444 2.48368L10.0444 2.48481C10.0357 5.57417 10.0357 6.65938 10.0444 9.74857C10.0479 10.6764 10.7881 11.4697 11.7846 11.5608L11.786 11.561C12.8339 11.6605 13.734 11.0156 13.9321 10.0883L13.9322 10.088C13.9575 9.96998 13.9625 9.83984 13.9625 9.67605C13.9538 8.15996 13.9538 7.64315 13.9538 6.12732C13.9538 5.57032 13.9544 5.14497 13.9549 4.75608C13.9558 4.07068 13.9566 3.49857 13.9538 2.51867C13.9501 1.80012 13.614 1.26628 12.9412 0.912604Z" fill="#000" stroke="white" stroke-width="0.8"/>
</svg>
