<svg width="24" height="26" viewBox="0 0 24 26" fill="#000" xmlns="http://www.w3.org/2000/svg">
<path d="M10.3638 3.89844L20.3503 13.885C20.8118 14.3465 20.8118 15.1033 20.3503 15.574C19.8888 16.0355 19.1412 16.0447 18.6705 15.5832L18.6613 15.574C18.1998 15.1218 17.4614 15.131 16.9999 15.5832L11.3144 21.2687C10.853 21.7302 10.1054 21.7302 9.64387 21.2687C9.18239 20.8073 9.18239 20.0596 9.64387 19.5982L15.3571 13.885C15.8001 13.4419 15.8001 12.7128 15.3571 12.2698L15.3017 12.2144C14.8587 11.7714 14.1295 11.7714 13.6865 12.2144L5.42589 20.475C4.96441 20.9365 4.2168 20.9365 3.75532 20.475C3.52457 20.2442 3.41382 19.9397 3.41382 19.6443C3.41382 19.3397 3.52457 19.0444 3.75532 18.8136L11.9974 10.5715C12.2282 10.3408 12.3389 10.0362 12.3389 9.74084C12.3389 9.43626 12.2282 9.14091 11.9974 8.91016C11.536 8.44868 10.7884 8.44868 10.3269 8.91016L6.33964 12.8974C5.87815 13.3589 5.13054 13.3589 4.66906 12.8974C4.43832 12.6667 4.32756 12.3621 4.32756 12.0667C4.32756 11.7621 4.44755 11.4668 4.66906 11.236L8.68398 7.22113C9.12701 6.7781 9.12701 6.04896 8.68398 5.60593L8.66552 5.58747C8.43478 5.35673 8.31479 5.05215 8.31479 4.74757C8.31479 4.44299 8.43478 4.13841 8.66552 3.90767C9.14547 3.43695 9.9023 3.43695 10.3638 3.89844Z" fill="#000"/>
<path d="M21.0233 3.23392C23.4691 5.67979 23.7553 9.46397 21.8816 12.2237C21.494 12.7959 20.6818 12.879 20.1834 12.3898L11.8674 4.07382C11.3782 3.58465 11.4521 2.77243 12.0335 2.37555C14.7932 0.501925 18.5774 0.788045 21.0233 3.23392Z" fill="#000"/>
<path d="M23.1711 2.73583C23.6289 2.27807 23.6289 1.5359 23.1711 1.07814C22.7133 0.620382 21.9712 0.620383 21.5134 1.07814C21.0557 1.5359 21.0557 2.27807 21.5134 2.73583C21.9712 3.19358 22.7133 3.19358 23.1711 2.73583Z" fill="#000"/>
<rect x="0.772461" y="15.2502" width="2.79821" height="2.33847" rx="1.16924" transform="rotate(-45 0.772461 15.2502)" fill="#000"/>
<rect y="22.5879" width="2.79821" height="2.33847" rx="1.16924" transform="rotate(-45 0 22.5879)" fill="#000"/>
<rect x="5.79297" y="23.3602" width="2.79821" height="2.33847" rx="1.16924" transform="rotate(-45 5.79297 23.3602)" fill="#000"/>
</svg>
