<svg width="20" height="24" viewBox="0 0 20 24" fill="#000" xmlns="http://www.w3.org/2000/svg">
<path d="M18.5447 4.7671C17.6507 3.30604 16.3953 2.09979 14.8997 1.26485C13.4041 0.429914 11.7187 -0.0056859 10.0058 6.40621e-05C8.29288 -0.00607691 6.6072 0.429384 5.11153 1.26436C3.61586 2.09934 2.36069 3.30577 1.46698 4.7671C0.73375 6.00705 0.26258 7.38416 0.0825801 8.81339C-0.0974201 10.2426 0.017562 11.6936 0.420449 13.0766C2.15489 19.0416 7.97937 22.9134 9.58854 23.8852C9.714 23.9603 9.8575 24 10.0037 24C10.15 24 10.2935 23.9603 10.4189 23.8852C12.0291 22.9104 17.8527 19.0365 19.5871 13.0766C19.9907 11.6938 20.1064 10.243 19.9271 8.81376C19.7478 7.38452 19.2773 6.0073 18.5447 4.7671ZM10.0058 13.6857C9.09957 13.6855 8.23051 13.3253 7.58969 12.6845C6.94887 12.0436 6.58868 11.1746 6.58841 10.2683C6.58868 9.36207 6.94887 8.49301 7.58969 7.85219C8.23051 7.21137 9.09957 6.85131 10.0058 6.85104C10.9123 6.85104 11.7815 7.21097 12.4226 7.85182C13.0636 8.49267 13.4238 9.3619 13.4241 10.2683C13.4238 11.1748 13.0636 12.044 12.4226 12.6848C11.7815 13.3257 10.9123 13.6857 10.0058 13.6857Z" fill="#000"/>
</svg>
