<svg width="24" height="23" viewBox="0 0 24 23" fill="#000" xmlns="http://www.w3.org/2000/svg">
<path opacity="0.4" d="M23.9995 6.89488V16.3682C24.0052 17.9725 23.372 19.5132 22.2395 20.6506C21.107 21.788 19.5682 22.4287 17.9623 22.4315H6.06921C4.46054 22.4344 2.91678 21.7979 1.77828 20.6625C0.63977 19.5271 -2.49311e-06 17.986 0 16.3788V6.89488C0.000876055 6.18913 0.127283 5.48915 0.373326 4.82759C1.24029 2.43025 3.51774 0.832464 6.06921 0.831544H17.9303C20.5129 0.830101 22.8125 2.46436 23.6582 4.90219C23.8928 5.54001 24.0085 6.2154 23.9995 6.89488Z" fill="#000"/>
<path d="M23.6584 4.91284L23.5411 5.00875C21.3331 6.72438 14.1866 12.468 14.1866 12.468C12.9439 13.4776 11.1627 13.4776 9.92001 12.468C9.92001 12.468 2.81615 6.73504 0.608197 5.0194L0.373535 4.83825C1.23693 2.4367 3.5152 0.834083 6.06942 0.831543H17.9305C20.5159 0.83167 22.8163 2.47081 23.6584 4.91284Z" fill="#000"/>
</svg>
