<svg width="24" height="24" viewBox="0 0 24 24" fill="#000" xmlns="http://www.w3.org/2000/svg">
<path d="M12 0C8.81738 0 5.76507 1.26432 3.51463 3.51476C1.2642 5.76519 0 8.81744 0 12C0 15.1826 1.2642 18.2349 3.51463 20.4853C5.76507 22.7357 8.81738 24 12 24C15.1826 24 18.2349 22.7357 20.4853 20.4853C22.7357 18.2349 23.9999 15.1826 23.9999 12C23.9999 8.81744 22.7357 5.76519 20.4853 3.51476C18.2349 1.26432 15.1826 0 12 0ZM16.4883 8.45012L14.7806 14.2633C14.7452 14.3847 14.6797 14.4953 14.5904 14.5848C14.501 14.6743 14.3906 14.7399 14.2693 14.7756L8.45099 16.4882C8.31981 16.5269 8.18084 16.5293 8.04842 16.4951C7.916 16.461 7.7953 16.3915 7.69923 16.2942C7.60315 16.1969 7.53522 16.0753 7.50276 15.9424C7.4703 15.8096 7.4745 15.6705 7.51487 15.5398L9.2922 9.78726C9.32845 9.66973 9.3928 9.56285 9.47977 9.47588C9.56674 9.38891 9.67387 9.3245 9.7914 9.28825L15.5398 7.51586C15.6703 7.47568 15.809 7.47155 15.9416 7.50393C16.0742 7.53632 16.1956 7.60399 16.2928 7.69978C16.3901 7.79558 16.4596 7.91594 16.494 8.04805C16.5283 8.18015 16.5265 8.31907 16.4883 8.45012Z" fill="#000"/>
</svg>
