<svg width="23" height="24" viewBox="0 0 23 24" fill="#000" xmlns="http://www.w3.org/2000/svg">
<path opacity="0.4" d="M11.2469 13.3332C14.9749 13.3332 17.997 10.3484 17.997 6.66654C17.997 2.98465 14.9749 -0.00012207 11.2469 -0.00012207C7.51895 -0.00012207 4.49683 2.98465 4.49683 6.66654C4.49683 10.3484 7.51895 13.3332 11.2469 13.3332Z" fill="#000"/>
<path d="M22.0351 20.0107V20.0107C22.0411 19.9158 22.0411 19.8207 22.0351 19.7258C22.0083 19.3751 21.9088 19.0327 21.7421 18.7176C21.0859 17.4354 19.2463 16.8546 17.7113 16.5258C16.6161 16.2978 15.5034 16.1512 14.3835 16.0874L13.2117 15.9998H12.6845H12.0283H10.4581H9.80194H9.27465L8.1029 16.0874C6.98301 16.1512 5.87028 16.2978 4.77512 16.5258C3.24012 16.8107 1.40047 17.4025 0.744283 18.7176C0.577557 19.0327 0.478058 19.3751 0.451344 19.7258C0.445255 19.8207 0.445255 19.9158 0.451344 20.0107V20.0107C0.445722 20.1056 0.445722 20.2007 0.451344 20.2956C0.483216 20.6433 0.586667 20.982 0.756 21.2929C1.41218 22.5751 3.25184 23.1559 4.78684 23.4847C5.88404 23.702 6.99592 23.8485 8.11462 23.923L9.28637 23.9998H9.56759H9.81366H12.6962H12.9422H13.2235L14.3952 23.923C15.5139 23.8485 16.6258 23.702 17.723 23.4847C19.258 23.1888 21.0977 22.608 21.7538 21.2929C21.9153 20.9721 22.0145 20.627 22.0468 20.2737C22.0483 20.1859 22.0444 20.0981 22.0351 20.0107Z" fill="#000"/>
</svg>
