<svg width="24" height="26" viewBox="0 0 24 26" fill="#000" xmlns="http://www.w3.org/2000/svg">
<path opacity="0.4" d="M22.7095 14.7985C21.5141 14.1065 21.1003 12.6141 21.7757 11.4301C21.9974 11.0479 22.3198 10.7301 22.7095 10.5094C23.3019 10.1781 23.7345 9.63075 23.9118 8.98824C24.0892 8.34572 23.9967 7.66087 23.6548 7.08488L22.8132 5.61401C22.4731 5.03705 21.9111 4.61569 21.2514 4.44295C20.5917 4.27021 19.8886 4.36029 19.2972 4.69332C18.7041 5.02686 17.9992 5.11725 17.3376 4.94458C16.6761 4.77191 16.1121 4.35034 15.7696 3.77262C15.5455 3.38927 15.4264 2.95621 15.4238 2.51508C15.4269 1.84907 15.1574 1.20932 14.6749 0.737326C14.1925 0.265332 13.5369 -6.69632e-06 12.8531 1.27581e-10H11.1585C9.7368 -1.3798e-05 8.58254 1.1192 8.57619 2.50385C8.58102 3.40189 8.09169 4.23366 7.29378 4.68371C6.49588 5.13376 5.51162 5.13314 4.71432 4.68209C4.11749 4.33551 3.40204 4.23901 2.73097 4.41458C2.0599 4.59014 1.49038 5.02281 1.15218 5.61401L0.345218 7.02874C-0.360091 8.22923 0.0622153 9.75913 1.29051 10.4533C2.52153 11.1516 2.93935 12.689 2.22428 13.8891C2.00557 14.2706 1.68229 14.5855 1.29051 14.7985C0.698139 15.1299 0.26552 15.6772 0.0881638 16.3197C-0.0891928 16.9622 0.00329834 17.6471 0.345218 18.2231L1.15218 19.6603C1.86915 20.8593 3.44762 21.2662 4.67974 20.5697C5.91315 19.8893 7.47896 20.2993 8.19577 21.4904C8.42391 21.8722 8.54329 22.3063 8.54161 22.748C8.54158 23.4189 8.8168 24.0621 9.30607 24.5344C9.79534 25.0067 10.4581 25.269 11.1469 25.2631H12.8415C14.2677 25.2631 15.4238 24.137 15.4238 22.748C15.4146 22.0781 15.6813 21.4326 16.1644 20.9557C16.6475 20.4788 17.3067 20.2104 17.9945 20.2104C18.4482 20.2077 18.8942 20.3241 19.2857 20.5473C20.5182 21.2342 22.089 20.8229 22.8017 19.6266L23.6548 18.1894C24.3435 16.9974 23.9226 15.4876 22.7095 14.7985Z" fill="#000"/>
<path d="M11.9999 15.7897C13.744 15.7897 15.1578 14.3758 15.1578 12.6318C15.1578 10.8877 13.744 9.47388 11.9999 9.47388C10.2559 9.47388 8.84204 10.8877 8.84204 12.6318C8.84204 14.3758 10.2559 15.7897 11.9999 15.7897Z" fill="#000"/>
</svg>
