<svg width="11" height="13" viewBox="0 0 11 13" fill="none" xmlns="http://www.w3.org/2000/svg">
<path d="M4.79614 12.3072C4.48342 12.3073 4.17148 12.2758 3.86507 12.2134C3.27419 12.0923 2.71292 11.8561 2.2133 11.5183C1.47053 11.0168 0.88911 10.3107 0.539508 9.48555C0.421319 9.20611 0.331088 8.91566 0.270137 8.61844C0.14498 8.00404 0.14498 7.37071 0.270137 6.7563C0.391168 6.16542 0.627362 5.60416 0.965242 5.10454C1.46668 4.36176 2.17277 3.78035 2.99796 3.43074C3.2774 3.31255 3.56785 3.22232 3.86507 3.16137C4.47947 3.03622 5.1128 3.03622 5.72721 3.16137C6.31808 3.2824 6.87935 3.5186 7.37897 3.85648C8.12175 4.35792 8.70316 5.06401 9.05277 5.8892C9.17095 6.16863 9.26118 6.45908 9.32214 6.7563C9.44521 7.36092 9.44714 7.98394 9.32782 8.5893C9.22549 9.11 9.03307 9.60884 8.75923 10.0634C8.34911 10.7482 7.76837 11.3149 7.07375 11.7082C6.37913 12.1015 5.59437 12.3079 4.79614 12.3072V12.3072ZM6.38749 5.52316C6.31263 5.52311 6.23849 5.53783 6.16934 5.56649C6.10018 5.59515 6.03737 5.63719 5.9845 5.69019L4.36969 7.30286C4.26272 7.41002 4.2027 7.55529 4.20283 7.70671C4.20296 7.85813 4.26324 8.00329 4.3704 8.11026C4.47756 8.21724 4.62283 8.27726 4.77425 8.27713C4.92567 8.27699 5.07083 8.21671 5.1778 8.10955L5.9845 7.30286L6.79119 6.49688C6.87183 6.41747 6.92693 6.31581 6.94946 6.2049C6.97198 6.09399 6.96089 5.97888 6.91761 5.87431C6.87433 5.76974 6.80083 5.68046 6.70652 5.6179C6.6122 5.55535 6.50137 5.52236 6.3882 5.52316H6.38749Z" fill="url(#paint0_linear_93_16)"/>
<path d="M2.53479 0.823482C2.53479 0.663257 2.59844 0.509594 2.71174 0.396298C2.82503 0.283002 2.97869 0.219352 3.13892 0.219352L6.7637 0.219352C6.92392 0.219352 7.07759 0.283002 7.19088 0.396298C7.30418 0.509594 7.36783 0.663257 7.36783 0.823482C7.36783 0.983708 7.30418 1.13737 7.19088 1.25067C7.07759 1.36396 6.92392 1.42761 6.7637 1.42761L3.13892 1.42761C2.97869 1.42761 2.82503 1.36396 2.71174 1.25067C2.59844 1.13737 2.53479 0.983708 2.53479 0.823482V0.823482Z" fill="url(#paint1_linear_93_16)"/>
<path d="M8.73557 1.95169C8.8526 1.83466 9.01132 1.76891 9.17682 1.76891C9.34233 1.76891 9.50105 1.83466 9.61808 1.95169L10.4152 2.74876C10.5322 2.86579 10.5979 3.02452 10.5979 3.19002C10.5979 3.35552 10.5322 3.51425 10.4152 3.63128C10.2981 3.7483 10.1394 3.81405 9.9739 3.81405C9.8084 3.81405 9.64967 3.7483 9.53264 3.63128L8.73557 2.8342C8.61854 2.71717 8.55279 2.55845 8.55279 2.39294C8.55279 2.22744 8.61854 2.06872 8.73557 1.95169V1.95169Z" fill="url(#paint2_linear_93_16)"/>
<defs>
<linearGradient id="paint0_linear_93_16" x1="4.79608" y1="3.0675" x2="4.79608" y2="12.3072" gradientUnits="userSpaceOnUse">
<stop stop-color="#FE724C"/>
<stop offset="1" stop-color="#FCA892"/>
</linearGradient>
<linearGradient id="paint1_linear_93_16" x1="2.53479" y1="0.823482" x2="7.36783" y2="0.823482" gradientUnits="userSpaceOnUse">
<stop stop-color="#FE724C"/>
<stop offset="1" stop-color="#FCA892"/>
</linearGradient>
<linearGradient id="paint2_linear_93_16" x1="8.73557" y1="1.95169" x2="10.4152" y2="3.63128" gradientUnits="userSpaceOnUse">
<stop stop-color="#FE724C"/>
<stop offset="1" stop-color="#FCA892"/>
</linearGradient>
</defs>
</svg>
