<svg width="24" height="23" viewBox="0 0 24 23" fill="#000" xmlns="http://www.w3.org/2000/svg">
<path fill-rule="evenodd" clip-rule="evenodd" d="M23.9955 7.28176H18.914C16.5492 7.28592 14.6335 9.15377 14.6292 11.4595C14.626 13.7703 16.5439 15.6465 18.914 15.6496H23.9998V16.0167C23.9998 20.0478 21.5561 22.4315 17.4207 22.4315H6.58021C2.44371 22.4315 0 20.0478 0 16.0167V7.23704C0 3.20599 2.44371 0.831665 6.58021 0.831665H17.4164C21.5518 0.831665 23.9955 3.20599 23.9955 7.23704V7.28176ZM5.6874 7.27247H12.4553H12.4596H12.4681C12.9748 7.27039 13.3844 6.86791 13.3823 6.37286C13.3801 5.87886 12.9663 5.4795 12.4596 5.48158H5.6874C5.18393 5.48366 4.7754 5.88198 4.77327 6.37391C4.77114 6.86791 5.18073 7.27039 5.6874 7.27247Z" fill="#000"/>
<path opacity="0.4" d="M16.8449 11.9874C17.0959 13.1288 18.0966 13.9319 19.2391 13.911H23.139C23.6144 13.911 24 13.5173 24 13.0307V9.99283C23.999 9.50724 23.6144 9.11249 23.139 9.11145H19.1473C17.8477 9.11563 16.798 10.1944 16.8001 11.5238C16.8001 11.6794 16.8154 11.835 16.8449 11.9874Z" fill="#000"/>
<path d="M19.2002 12.7115C19.863 12.7115 20.4002 12.1742 20.4002 11.5115C20.4002 10.8488 19.863 10.3115 19.2002 10.3115C18.5375 10.3115 18.0002 10.8488 18.0002 11.5115C18.0002 12.1742 18.5375 12.7115 19.2002 12.7115Z" fill="#000"/>
</svg>
